Pacifico-Regular.ufo
<glyph name="exclam" format="1">
  <advance width="319"/>
  <unicode hex="0021"/>
  <outline>
    <contour>
      <point x="194" y="188" type="line" smooth="yes"/>
      <point x="189" y="172"/>
      <point x="219" y="151"/>
      <point x="234" y="192" type="curve" smooth="yes"/>
      <point x="364" y="526" type="line" smooth="yes"/>
      <point x="386" y="584"/>
      <point x="413" y="641"/>
      <point x="348" y="648" type="curve" smooth="yes"/>
      <point x="317" y="651"/>
      <point x="296" y="630"/>
      <point x="289" y="601" type="curve" smooth="yes"/>
    </contour>
    <contour>
      <point x="181" y="-0" type="curve" smooth="yes"/>
      <point x="220" y="-0"/>
      <point x="242" y="28"/>
      <point x="242" y="65" type="curve" smooth="yes"/>
      <point x="242" y="101"/>
      <point x="223" y="121"/>
      <point x="187" y="121" type="curve" smooth="yes"/>
      <point x="147" y="121"/>
      <point x="125" y="94"/>
      <point x="125" y="55" type="curve" smooth="yes"/>
      <point x="125" y="19"/>
      <point x="145" y="-0"/>
    </contour>
  </outline>
</glyph>
<glyph name="quotedbl" format="1">
  <advance width="404"/>
  <unicode hex="0022"/>
  <outline>
    <contour>
      <point x="227" y="388" type="curve" smooth="yes"/>
      <point x="243" y="388"/>
      <point x="255" y="403"/>
      <point x="258" y="420" type="curve" smooth="yes"/>
      <point x="268" y="469"/>
      <point x="274" y="527"/>
      <point x="281" y="597" type="curve" smooth="yes"/>
      <point x="281" y="599"/>
      <point x="281" y="600"/>
      <point x="281" y="602" type="curve" smooth="yes"/>
      <point x="281" y="624"/>
      <point x="265" y="634"/>
      <point x="248" y="634" type="curve" smooth="yes"/>
      <point x="223" y="634"/>
      <point x="197" y="619"/>
      <point x="197" y="591" type="curve" smooth="yes"/>
      <point x="197" y="533"/>
      <point x="200" y="480"/>
      <point x="200" y="421" type="curve" smooth="yes"/>
      <point x="200" y="402"/>
      <point x="209" y="388"/>
    </contour>
    <contour>
      <point x="106" y="388" type="curve" smooth="yes"/>
      <point x="120" y="388"/>
      <point x="131" y="403"/>
      <point x="134" y="420" type="curve" smooth="yes"/>
      <point x="140" y="469"/>
      <point x="146" y="539"/>
      <point x="146" y="597" type="curve" smooth="yes"/>
      <point x="146" y="622"/>
      <point x="130" y="634"/>
      <point x="109" y="634" type="curve" smooth="yes"/>
      <point x="88" y="634"/>
      <point x="65" y="619"/>
      <point x="65" y="591" type="curve" smooth="yes"/>
      <point x="65" y="533"/>
      <point x="73" y="473"/>
      <point x="79" y="421" type="curve" smooth="yes"/>
      <point x="81" y="402"/>
      <point x="88" y="388"/>
    </contour>
  </outline>
</glyph>
<glyph name="asterisk" format="1">
  <advance width="350"/>
  <unicode hex="002A"/>
  <outline>
    <contour>
      <point x="145" y="295" type="curve" smooth="yes"/>
      <point x="166" y="295"/>
      <point x="188" y="307"/>
      <point x="188" y="327" type="curve" smooth="yes"/>
      <point x="188" y="359"/>
      <point x="188" y="395"/>
      <point x="189" y="427" type="curve"/>
      <point x="211" y="403"/>
      <point x="238" y="380"/>
      <point x="262" y="357" type="curve" smooth="yes"/>
      <point x="289" y="330"/>
      <point x="340" y="396"/>
      <point x="307" y="413" type="curve" smooth="yes"/>
      <point x="279" y="427"/>
      <point x="248" y="440"/>
      <point x="219" y="453" type="curve"/>
      <point x="252" y="458"/>
      <point x="339" y="461"/>
      <point x="339" y="496" type="curve" smooth="yes"/>
      <point x="339" y="523"/>
      <point x="303" y="545"/>
      <point x="285" y="535" type="curve" smooth="yes"/>
      <point x="258" y="520"/>
      <point x="228" y="503"/>
      <point x="200" y="488" type="curve"/>
      <point x="212" y="518"/>
      <point x="225" y="553"/>
      <point x="235" y="584" type="curve" smooth="yes"/>
      <point x="242" y="604"/>
      <point x="227" y="624"/>
      <point x="206" y="624" type="curve" smooth="yes"/>
      <point x="185" y="624"/>
      <point x="164" y="613"/>
      <point x="164" y="592" type="curve" smooth="yes"/>
      <point x="164" y="559"/>
      <point x="162" y="523"/>
      <point x="162" y="491" type="curve"/>
      <point x="138" y="514"/>
      <point x="112" y="538"/>
      <point x="89" y="561" type="curve" smooth="yes"/>
      <point x="63" y="586"/>
      <point x="-6" y="530"/>
      <point x="44" y="505" type="curve" smooth="yes"/>
      <point x="71" y="491"/>
      <point x="102" y="478"/>
      <point x="130" y="465" type="curve"/>
      <point x="98" y="459"/>
      <point x="11" y="458"/>
      <point x="11" y="422" type="curve" smooth="yes"/>
      <point x="11" y="396"/>
      <point x="45" y="370"/>
      <point x="65" y="383" type="curve"/>
      <point x="93" y="397"/>
      <point x="123" y="413"/>
      <point x="150" y="429" type="curve"/>
      <point x="138" y="399"/>
      <point x="113" y="359"/>
      <point x="113" y="322" type="curve" smooth="yes"/>
      <point x="113" y="304"/>
      <point x="127" y="295"/>
    </contour>
  </outline>
</glyph>
<glyph name="slash" format="1">
  <advance width="426"/>
  <unicode hex="002F"/>
  <outline>
    <contour>
      <point x="166" y="22" type="curve" smooth="yes"/>
      <point x="230" y="172"/>
      <point x="326" y="394"/>
      <point x="395" y="558" type="curve" smooth="yes"/>
      <point x="413" y="601"/>
      <point x="350" y="635"/>
      <point x="324" y="576" type="curve" smooth="yes"/>
      <point x="257" y="420"/>
      <point x="169" y="219"/>
      <point x="101" y="62" type="curve" smooth="yes"/>
      <point x="70" y="-11"/>
      <point x="147" y="-21"/>
    </contour>
  </outline>
</glyph>
<glyph name="one" format="1">
  <advance width="333"/>
  <unicode hex="0031"/>
  <outline>
    <contour>
      <point x="211" y="11" type="curve" smooth="yes"/>
      <point x="245" y="170"/>
      <point x="291" y="417"/>
      <point x="297" y="448" type="curve" smooth="yes"/>
      <point x="302" y="475"/>
      <point x="298" y="496"/>
      <point x="278" y="492" type="curve" smooth="yes"/>
      <point x="243" y="485"/>
      <point x="157" y="467"/>
      <point x="129" y="458" type="curve" smooth="yes"/>
      <point x="105" y="451"/>
      <point x="109" y="381"/>
      <point x="134" y="388" type="curve" smooth="yes"/>
      <point x="147" y="391"/>
      <point x="196" y="405"/>
      <point x="212" y="411" type="curve"/>
      <point x="188" y="298"/>
      <point x="168" y="204"/>
      <point x="131" y="22" type="curve" smooth="yes"/>
      <point x="123" y="-21"/>
      <point x="205" y="-19"/>
    </contour>
  </outline>
</glyph>
<glyph name="equal" format="1">
  <advance width="583"/>
  <unicode hex="003D"/>
  <outline>
    <contour>
      <point x="177" y="98" type="curve" smooth="yes"/>
      <point x="448" y="98" type="line" smooth="yes"/>
      <point x="516" y="98"/>
      <point x="554" y="109"/>
      <point x="554" y="154" type="curve" smooth="yes"/>
      <point x="554" y="170"/>
      <point x="542" y="175"/>
      <point x="526" y="175" type="curve" smooth="yes"/>
      <point x="413" y="175" type="line" smooth="yes"/>
      <point x="374" y="175"/>
      <point x="294" y="171"/>
      <point x="202" y="175" type="curve" smooth="yes"/>
      <point x="164" y="177"/>
      <point x="119" y="172"/>
      <point x="119" y="142" type="curve" smooth="yes"/>
      <point x="119" y="109"/>
      <point x="140" y="98"/>
    </contour>
    <contour>
      <point x="177" y="235" type="curve" smooth="yes"/>
      <point x="482" y="240" type="line" smooth="yes"/>
      <point x="528" y="240"/>
      <point x="566" y="251"/>
      <point x="566" y="285" type="curve" smooth="yes"/>
      <point x="566" y="312"/>
      <point x="556" y="318"/>
      <point x="544" y="321" type="curve" smooth="yes"/>
      <point x="484" y="334"/>
      <point x="422" y="313"/>
      <point x="303" y="316" type="curve" smooth="yes"/>
      <point x="214" y="318" type="line" smooth="yes"/>
      <point x="176" y="319"/>
      <point x="131" y="314"/>
      <point x="131" y="276" type="curve" smooth="yes"/>
      <point x="131" y="251"/>
      <point x="152" y="234"/>
    </contour>
  </outline>
</glyph>
<glyph name="D" format="1">
  <advance width="607"/>
  <unicode hex="0044"/>
  <outline>
    <contour>
      <point x="200" y="-47" type="curve" smooth="yes"/>
      <point x="400" y="-47"/>
      <point x="606" y="109"/>
      <point x="604" y="382" type="curve" smooth="yes"/>
      <point x="602" y="560"/>
      <point x="481" y="679"/>
      <point x="255" y="675" type="curve" smooth="yes"/>
      <point x="163" y="673"/>
      <point x="98" y="644"/>
      <point x="47" y="584" type="curve" smooth="yes"/>
      <point x="42" y="578"/>
      <point x="15" y="534"/>
      <point x="15" y="502" type="curve" smooth="yes"/>
      <point x="14" y="488"/>
      <point x="21" y="466"/>
      <point x="40" y="466" type="curve" smooth="yes"/>
      <point x="62" y="466"/>
      <point x="88" y="518"/>
      <point x="106" y="537" type="curve" smooth="yes"/>
      <point x="152" y="584"/>
      <point x="212" y="596"/>
      <point x="258" y="597" type="curve" smooth="yes"/>
      <point x="432" y="601"/>
      <point x="517" y="494"/>
      <point x="520" y="375" type="curve" smooth="yes"/>
      <point x="524" y="193"/>
      <point x="378" y="17"/>
      <point x="190" y="17" type="curve" smooth="yes"/>
      <point x="160" y="17"/>
      <point x="158" y="31"/>
      <point x="159" y="61" type="curve" smooth="yes"/>
      <point x="161" y="186"/>
      <point x="219" y="438"/>
      <point x="278" y="515" type="curve"/>
      <point x="267" y="533"/>
      <point x="253" y="543"/>
      <point x="236" y="543" type="curve" smooth="yes"/>
      <point x="223" y="543"/>
      <point x="208" y="537"/>
      <point x="192" y="526" type="curve"/>
      <point x="121" y="424"/>
      <point x="72" y="175"/>
      <point x="69" y="5" type="curve" smooth="yes"/>
      <point x="68" y="-9"/>
      <point x="71" y="-14"/>
      <point x="82" y="-19" type="curve" smooth="yes"/>
      <point x="113" y="-33"/>
      <point x="154" y="-47"/>
    </contour>
    <contour>
      <point x="208" y="-36" type="move" name="bot"/>
    </contour>
  </outline>
</glyph>
<glyph name="Q" format="1">
  <advance width="701"/>
  <unicode hex="0051"/>
  <outline>
    <contour>
      <point x="966" y="-308" type="curve" smooth="yes"/>
      <point x="1025" y="-263"/>
      <point x="1031" y="-230"/>
      <point x="1041" y="-214" type="curve"/>
      <point x="1043" y="-207"/>
      <point x="1041" y="-199"/>
      <point x="1037" y="-193" type="curve" smooth="yes"/>
      <point x="1027" y="-180"/>
      <point x="1003" y="-175"/>
      <point x="992" y="-184" type="curve" smooth="yes"/>
      <point x="989" y="-187"/>
      <point x="986" y="-189"/>
      <point x="985" y="-193" type="curve"/>
      <point x="971" y="-209"/>
      <point x="958" y="-224"/>
      <point x="943" y="-235" type="curve" smooth="yes"/>
      <point x="882" y="-281"/>
      <point x="747" y="-233"/>
      <point x="438" y="4" type="curve" smooth="yes"/>
      <point x="422" y="16"/>
      <point x="376" y="-32"/>
      <point x="393" y="-44" type="curve" smooth="yes"/>
      <point x="680" y="-258"/>
      <point x="841" y="-402"/>
    </contour>
    <component base="O"/>
  </outline>
</glyph>
<glyph name="U" format="1">
  <advance width="632"/>
  <unicode hex="0055"/>
  <outline>
    <contour>
      <point x="287" y="15" type="curve" smooth="yes"/>
      <point x="98" y="15"/>
      <point x="167" y="365"/>
      <point x="281" y="553" type="curve" smooth="yes"/>
      <point x="310" y="600"/>
      <point x="233" y="612"/>
      <point x="205" y="567" type="curve" smooth="yes"/>
      <point x="65" y="347"/>
      <point x="-3" y="-56"/>
      <point x="277" y="-63" type="curve" smooth="yes"/>
      <point x="656" y="-74"/>
      <point x="810" y="701"/>
      <point x="544" y="692" type="curve" smooth="yes"/>
      <point x="288" y="684"/>
      <point x="445" y="202"/>
      <point x="792" y="482" type="curve" smooth="yes"/>
      <point x="818" y="503"/>
      <point x="792" y="546"/>
      <point x="763" y="524" type="curve" smooth="yes"/>
      <point x="500" y="328"/>
      <point x="418" y="620"/>
      <point x="531" y="624" type="curve" smooth="yes"/>
      <point x="686" y="630"/>
      <point x="564" y="15"/>
    </contour>
    <contour>
      <point x="80" y="431" type="curve" smooth="yes"/>
      <point x="250" y="543" type="line" smooth="yes"/>
      <point x="272" y="558"/>
      <point x="254" y="606"/>
      <point x="226" y="588" type="curve" smooth="yes"/>
      <point x="58" y="480" type="line" smooth="yes"/>
      <point x="29" y="462"/>
      <point x="44" y="408"/>
    </contour>
    <contour>
      <point x="292" y="-53" type="move" name="ogonek"/>
    </contour>
  </outline>
</glyph>
<glyph name="W" format="1">
  <advance width="965"/>
  <unicode hex="0057"/>
  <outline>
    <contour>
      <point x="614" y="-44" type="curve"/>
      <point x="734" y="-39"/>
      <point x="832" y="104"/>
      <point x="917" y="256" type="curve"/>
      <point x="1063" y="525"/>
      <point x="1021" y="699"/>
      <point x="911" y="700" type="curve" smooth="yes"/>
      <point x="644" y="700"/>
      <point x="775" y="216"/>
      <point x="1151" y="477" type="curve"/>
      <point x="1185" y="502"/>
      <point x="1155" y="554"/>
      <point x="1116" y="526" type="curve"/>
      <point x="836" y="331"/>
      <point x="799" y="634"/>
      <point x="901" y="634" type="curve" smooth="yes"/>
      <point x="939" y="634"/>
      <point x="967" y="531"/>
      <point x="848" y="292" type="curve"/>
      <point x="798" y="197"/>
      <point x="705" y="48"/>
      <point x="626" y="37" type="curve" smooth="yes"/>
      <point x="574" y="30"/>
      <point x="568" y="142"/>
      <point x="568" y="189" type="curve" smooth="yes"/>
      <point x="568" y="212"/>
      <point x="569" y="232"/>
      <point x="571" y="250" type="curve" smooth="yes"/>
      <point x="583" y="343"/>
      <point x="622" y="386"/>
      <point x="633" y="442" type="curve" smooth="yes"/>
      <point x="642" y="482"/>
      <point x="624" y="504"/>
      <point x="601" y="504" type="curve" smooth="yes"/>
      <point x="585" y="505"/>
      <point x="566" y="495"/>
      <point x="553" y="472" type="curve" smooth="yes"/>
      <point x="515" y="409"/>
      <point x="489" y="280"/>
      <point x="493" y="167" type="curve" smooth="yes"/>
      <point x="497" y="53"/>
      <point x="531" y="-45"/>
    </contour>
    <contour>
      <point x="241" y="-44" type="curve"/>
      <point x="360" y="-39"/>
      <point x="467" y="110"/>
      <point x="545" y="279" type="curve"/>
      <point x="519" y="381" type="line"/>
      <point x="508" y="353"/>
      <point x="496" y="325"/>
      <point x="483" y="299" type="curve" smooth="yes"/>
      <point x="413" y="150"/>
      <point x="321" y="45"/>
      <point x="253" y="37" type="curve" smooth="yes"/>
      <point x="219" y="33"/>
      <point x="193" y="61"/>
      <point x="193" y="152" type="curve" smooth="yes"/>
      <point x="193" y="345"/>
      <point x="296" y="507"/>
      <point x="305" y="518" type="curve" smooth="yes"/>
      <point x="321" y="540"/>
      <point x="265" y="599"/>
      <point x="214" y="526" type="curve" smooth="yes"/>
      <point x="194" y="497"/>
      <point x="105" y="341"/>
      <point x="105" y="159" type="curve" smooth="yes"/>
      <point x="105" y="28"/>
      <point x="149" y="-45"/>
    </contour>
    <contour>
      <point x="34" y="348" type="curve"/>
      <point x="263" y="490" type="line" smooth="yes"/>
      <point x="292" y="508"/>
      <point x="269" y="570"/>
      <point x="232" y="547" type="curve" smooth="yes"/>
      <point x="5" y="410" type="line" smooth="yes"/>
      <point x="-31" y="389"/>
      <point x="-11" y="320"/>
    </contour>
  </outline>
</glyph>
<glyph name="bracketright" format="1">
  <advance width="316"/>
  <unicode hex="005D"/>
  <outline>
    <contour>
      <point x="42" y="-65" type="curve" smooth="yes"/>
      <point x="161" y="-65" type="line" smooth="yes"/>
      <point x="197" y="-65"/>
      <point x="214" y="-58"/>
      <point x="223" y="-7" type="curve" smooth="yes"/>
      <point x="244" y="126"/>
      <point x="265" y="287"/>
      <point x="283" y="417" type="curve" smooth="yes"/>
      <point x="298" y="522" type="line" smooth="yes"/>
      <point x="303" y="559"/>
      <point x="291" y="570"/>
      <point x="250" y="570" type="curve" smooth="yes"/>
      <point x="138" y="570" type="line" smooth="yes"/>
      <point x="116" y="570"/>
      <point x="95" y="553"/>
      <point x="95" y="531" type="curve" smooth="yes"/>
      <point x="95" y="513"/>
      <point x="113" y="502"/>
      <point x="131" y="502" type="curve" smooth="yes"/>
      <point x="220" y="502" type="line"/>
      <point x="208" y="425"/>
      <point x="195" y="335"/>
      <point x="184" y="255" type="curve" smooth="yes"/>
      <point x="172" y="177"/>
      <point x="158" y="66"/>
      <point x="147" y="2" type="curve"/>
      <point x="46" y="2" type="line" smooth="yes"/>
      <point x="26" y="2"/>
      <point x="9" y="-12"/>
      <point x="9" y="-32" type="curve" smooth="yes"/>
      <point x="9" y="-52"/>
      <point x="21" y="-65"/>
    </contour>
  </outline>
</glyph>
<glyph name="d" format="1">
  <advance width="385"/>
  <unicode hex="0064"/>
  <outline>
    <contour>
      <point x="123" y="-5" type="curve" smooth="yes"/>
      <point x="174" y="-5"/>
      <point x="209" y="20"/>
      <point x="228" y="66" type="curve"/>
      <point x="248" y="21"/>
      <point x="285" y="-3"/>
      <point x="326" y="-3" type="curve" smooth="yes"/>
      <point x="400" y="-3"/>
      <point x="449" y="44"/>
      <point x="481" y="85" type="curve" smooth="yes"/>
      <point x="484" y="89"/>
      <point x="490" y="99"/>
      <point x="489" y="109" type="curve" smooth="yes"/>
      <point x="487" y="127"/>
      <point x="472" y="138"/>
      <point x="458" y="138" type="curve" smooth="yes"/>
      <point x="451" y="138"/>
      <point x="446" y="137"/>
      <point x="442" y="133" type="curve" smooth="yes"/>
      <point x="425" y="111"/>
      <point x="379" y="60"/>
      <point x="334" y="60" type="curve" smooth="yes"/>
      <point x="306" y="60"/>
      <point x="286" y="89"/>
      <point x="288" y="155" type="curve"/>
      <point x="365" y="270"/>
      <point x="500" y="435"/>
      <point x="487" y="590" type="curve" smooth="yes"/>
      <point x="484" y="625"/>
      <point x="455" y="657"/>
      <point x="414" y="657" type="curve" smooth="yes"/>
      <point x="313" y="657"/>
      <point x="255" y="520"/>
      <point x="228" y="325" type="curve"/>
      <point x="119" y="360"/>
      <point x="13" y="222"/>
      <point x="23" y="97" type="curve" smooth="yes"/>
      <point x="29" y="35"/>
      <point x="71" y="-5"/>
    </contour>
    <contour>
      <point x="139" y="65" type="curve" smooth="yes"/>
      <point x="125" y="65"/>
      <point x="104" y="71"/>
      <point x="101" y="111" type="curve" smooth="yes"/>
      <point x="95" y="180"/>
      <point x="146" y="264"/>
      <point x="224" y="264" type="curve"/>
      <point x="212" y="188" type="line" smooth="yes"/>
      <point x="198" y="89"/>
      <point x="173" y="65"/>
    </contour>
    <contour>
      <point x="290" y="252" type="curve"/>
      <point x="308" y="390"/>
      <point x="334" y="574"/>
      <point x="399" y="574" type="curve" smooth="yes"/>
      <point x="408" y="574"/>
      <point x="415" y="570"/>
      <point x="417" y="553" type="curve" smooth="yes"/>
      <point x="425" y="459"/>
      <point x="354" y="354"/>
    </contour>
    <contour>
      <point x="521" y="555" type="move" name="caron.alt"/>
    </contour>
  </outline>
</glyph>
<glyph name="y" format="1">
  <advance width="346"/>
  <unicode hex="0079"/>
  <outline>
    <contour>
      <point x="61" y="-317" type="curve" smooth="yes"/>
      <point x="211" y="-317"/>
      <point x="251" y="-157"/>
      <point x="274" y="-37" type="curve"/>
      <point x="340" y="7"/>
      <point x="418" y="50"/>
      <point x="469" y="80" type="curve" smooth="yes"/>
      <point x="513" y="105"/>
      <point x="479" y="157"/>
      <point x="450" y="141" type="curve" smooth="yes"/>
      <point x="417" y="124"/>
      <point x="329" y="67"/>
      <point x="285" y="35" type="curve"/>
      <point x="291" y="73"/>
      <point x="298" y="107"/>
      <point x="305" y="141" type="curve" smooth="yes"/>
      <point x="313" y="189"/>
      <point x="334" y="246"/>
      <point x="334" y="292" type="curve" smooth="yes"/>
      <point x="334" y="305"/>
      <point x="318" y="311"/>
      <point x="304" y="311" type="curve" smooth="yes"/>
      <point x="278" y="311"/>
      <point x="265" y="293"/>
      <point x="258" y="266" type="curve" smooth="yes"/>
      <point x="229" y="162" type="line" smooth="yes"/>
      <point x="216" y="118"/>
      <point x="190" y="65"/>
      <point x="150" y="61" type="curve" smooth="yes"/>
      <point x="117" y="58"/>
      <point x="111" y="89"/>
      <point x="111" y="111" type="curve" smooth="yes"/>
      <point x="111" y="155"/>
      <point x="125" y="199"/>
      <point x="136" y="236" type="curve" smooth="yes"/>
      <point x="144" y="256"/>
      <point x="156" y="271"/>
      <point x="156" y="291" type="curve" smooth="yes"/>
      <point x="156" y="308"/>
      <point x="139" y="316"/>
      <point x="128" y="316" type="curve" smooth="yes"/>
      <point x="109" y="316"/>
      <point x="88" y="301"/>
      <point x="79" y="284" type="curve" smooth="yes"/>
      <point x="51" y="231"/>
      <point x="31" y="175"/>
      <point x="31" y="96" type="curve" smooth="yes"/>
      <point x="31" y="42"/>
      <point x="67" y="0"/>
      <point x="118" y="0" type="curve" smooth="yes"/>
      <point x="152" y="0"/>
      <point x="204" y="32"/>
      <point x="228" y="77" type="curve"/>
      <point x="198" y="-10" type="line"/>
      <point x="145" y="-49"/>
      <point x="87" y="-81"/>
      <point x="45" y="-129" type="curve" smooth="yes"/>
      <point x="18" y="-160"/>
      <point x="-22" y="-201"/>
      <point x="-22" y="-249" type="curve" smooth="yes"/>
      <point x="-22" y="-297"/>
      <point x="11" y="-317"/>
    </contour>
    <contour>
      <point x="65" y="-258" type="curve" smooth="yes"/>
      <point x="56" y="-257"/>
      <point x="51" y="-248"/>
      <point x="51" y="-239" type="curve" smooth="yes"/>
      <point x="51" y="-205"/>
      <point x="128" y="-116"/>
      <point x="186" y="-81" type="curve"/>
      <point x="174" y="-136"/>
      <point x="134" y="-269"/>
    </contour>
  </outline>
</glyph>
<glyph name="copyright" format="1">
  <advance width="612"/>
  <unicode hex="00A9"/>
  <outline>
    <contour>
      <point x="284" y="110" type="curve" smooth="yes"/>
      <point x="329" y="110"/>
      <point x="365" y="131"/>
      <point x="392" y="150" type="curve" smooth="yes"/>
      <point x="397" y="154"/>
      <point x="400" y="160"/>
      <point x="400" y="169" type="curve" smooth="yes"/>
      <point x="400" y="185"/>
      <point x="390" y="206"/>
      <point x="374" y="199" type="curve"/>
      <point x="355" y="187"/>
      <point x="328" y="169"/>
      <point x="299" y="169" type="curve" smooth="yes"/>
      <point x="265" y="169"/>
      <point x="252" y="198"/>
      <point x="252" y="231" type="curve" smooth="yes"/>
      <point x="252" y="278"/>
      <point x="267" y="337"/>
      <point x="313" y="337" type="curve" smooth="yes"/>
      <point x="327" y="337"/>
      <point x="319" y="309"/>
      <point x="319" y="293" type="curve" smooth="yes"/>
      <point x="319" y="277"/>
      <point x="324" y="268"/>
      <point x="341" y="268" type="curve" smooth="yes"/>
      <point x="370" y="268"/>
      <point x="385" y="298"/>
      <point x="385" y="328" type="curve" smooth="yes"/>
      <point x="385" y="371"/>
      <point x="351" y="396"/>
      <point x="307" y="396" type="curve" smooth="yes"/>
      <point x="215" y="396"/>
      <point x="177" y="308"/>
      <point x="177" y="226" type="curve" smooth="yes"/>
      <point x="177" y="165"/>
      <point x="207" y="110"/>
    </contour>
    <contour>
      <point x="287" y="65" type="curve" smooth="yes"/>
      <point x="180" y="65"/>
      <point x="100" y="117"/>
      <point x="100" y="221" type="curve" smooth="yes"/>
      <point x="100" y="349"/>
      <point x="195" y="437"/>
      <point x="326" y="437" type="curve" smooth="yes"/>
      <point x="428" y="437"/>
      <point x="493" y="385"/>
      <point x="493" y="285" type="curve" smooth="yes"/>
      <point x="493" y="161"/>
      <point x="412" y="65"/>
    </contour>
    <contour>
      <point x="285" y="11" type="curve" smooth="yes"/>
      <point x="438" y="11"/>
      <point x="556" y="117"/>
      <point x="556" y="287" type="curve" smooth="yes"/>
      <point x="556" y="418"/>
      <point x="471" y="492"/>
      <point x="338" y="492" type="curve" smooth="yes"/>
      <point x="170" y="492"/>
      <point x="37" y="392"/>
      <point x="37" y="225" type="curve" smooth="yes"/>
      <point x="37" y="86"/>
      <point x="143" y="11"/>
    </contour>
  </outline>
</glyph>
<glyph name="acute" format="1">
  <advance width="208"/>
  <unicode hex="00B4"/>
  <outline>
    <contour>
      <point x="126" y="426" type="curve" smooth="yes"/>
      <point x="246" y="540" type="line" smooth="yes"/>
      <point x="291" y="583"/>
      <point x="213" y="641"/>
      <point x="184" y="591" type="curve" smooth="yes"/>
      <point x="97" y="451" type="line" smooth="yes"/>
      <point x="79" y="421"/>
      <point x="105" y="406"/>
    </contour>
  </outline>
</glyph>
<glyph name="periodcentered" format="1">
  <advance width="240"/>
  <unicode hex="00B7"/>
  <outline>
    <contour>
      <point x="210" y="0" type="curve" smooth="yes"/>
      <point x="250" y="0"/>
      <point x="274" y="26"/>
      <point x="274" y="65" type="curve" smooth="yes"/>
      <point x="274" y="102"/>
      <point x="253" y="121"/>
      <point x="216" y="121" type="curve" smooth="yes"/>
      <point x="176" y="121"/>
      <point x="154" y="94"/>
      <point x="154" y="55" type="curve" smooth="yes"/>
      <point x="154" y="19"/>
      <point x="174" y="0"/>
    </contour>
  </outline>
</glyph>
<glyph name="ordmasculine" format="1">
  <advance width="273"/>
  <unicode hex="00BA"/>
  <outline>
    <contour>
      <point x="131" y="331" type="curve" smooth="yes"/>
      <point x="99" y="331"/>
      <point x="88" y="358"/>
      <point x="88" y="391" type="curve" smooth="yes"/>
      <point x="88" y="432"/>
      <point x="108" y="501"/>
      <point x="148" y="501" type="curve" smooth="yes"/>
      <point x="176" y="501"/>
      <point x="183" y="466"/>
      <point x="183" y="437" type="curve" smooth="yes"/>
      <point x="183" y="399"/>
      <point x="166" y="331"/>
    </contour>
    <contour>
      <point x="121" y="274" type="curve" smooth="yes"/>
      <point x="204" y="274"/>
      <point x="247" y="361"/>
      <point x="247" y="445" type="curve" smooth="yes"/>
      <point x="247" y="504"/>
      <point x="224" y="558"/>
      <point x="165" y="558" type="curve" smooth="yes"/>
      <point x="82" y="558"/>
      <point x="24" y="487"/>
      <point x="24" y="403" type="curve" smooth="yes"/>
      <point x="24" y="335"/>
      <point x="53" y="274"/>
    </contour>
  </outline>
</glyph>
<glyph name="onequarter" format="1">
  <advance width="998"/>
  <unicode hex="00BC"/>
  <outline>
    <contour>
      <point x="824" y="-20" type="curve" smooth="yes"/>
      <point x="844" y="-20"/>
      <point x="856" y="-16"/>
      <point x="865" y="21" type="curve" smooth="yes"/>
      <point x="877" y="69" type="line"/>
      <point x="939" y="70" type="line" smooth="yes"/>
      <point x="976" y="71"/>
      <point x="983" y="136"/>
      <point x="952" y="135" type="curve" smooth="yes"/>
      <point x="891" y="135" type="line"/>
      <point x="898" y="167"/>
      <point x="923" y="268"/>
      <point x="930" y="297" type="curve" smooth="yes"/>
      <point x="934" y="315"/>
      <point x="918" y="321"/>
      <point x="900" y="321" type="curve" smooth="yes"/>
      <point x="876" y="321"/>
      <point x="864" y="309"/>
      <point x="857" y="288" type="curve" smooth="yes"/>
      <point x="851" y="263"/>
      <point x="822" y="157"/>
      <point x="818" y="136" type="curve"/>
      <point x="728" y="136" type="line"/>
      <point x="760" y="239"/>
      <point x="803" y="368"/>
      <point x="827" y="449" type="curve" smooth="yes"/>
      <point x="837" y="484"/>
      <point x="769" y="496"/>
      <point x="756" y="459" type="curve" smooth="yes"/>
      <point x="729" y="382"/>
      <point x="671" y="207"/>
      <point x="647" y="130" type="curve" smooth="yes"/>
      <point x="633" y="81"/>
      <point x="645" y="68"/>
      <point x="673" y="68" type="curve" smooth="yes"/>
      <point x="802" y="68" type="line"/>
      <point x="792" y="22" type="line" smooth="yes"/>
      <point x="787" y="-4"/>
      <point x="793" y="-20"/>
    </contour>
    <contour>
      <point x="402" y="-16" type="curve" smooth="yes"/>
      <point x="656" y="571" type="line" smooth="yes"/>
      <point x="673" y="611"/>
      <point x="616" y="649"/>
      <point x="591" y="593" type="curve" smooth="yes"/>
      <point x="337" y="20" type="line" smooth="yes"/>
      <point x="315" y="-30"/>
      <point x="385" y="-58"/>
    </contour>
    <contour>
      <point x="211" y="216" type="curve" smooth="yes"/>
      <point x="245" y="375"/>
      <point x="291" y="622"/>
      <point x="297" y="653" type="curve" smooth="yes"/>
      <point x="302" y="680"/>
      <point x="298" y="701"/>
      <point x="278" y="697" type="curve" smooth="yes"/>
      <point x="243" y="690"/>
      <point x="157" y="672"/>
      <point x="129" y="664" type="curve" smooth="yes"/>
      <point x="105" y="656"/>
      <point x="109" y="586"/>
      <point x="134" y="593" type="curve" smooth="yes"/>
      <point x="147" y="596"/>
      <point x="196" y="610"/>
      <point x="212" y="616" type="curve"/>
      <point x="188" y="503"/>
      <point x="168" y="409"/>
      <point x="131" y="228" type="curve" smooth="yes"/>
      <point x="123" y="184"/>
      <point x="205" y="187"/>
    </contour>
  </outline>
</glyph>
<glyph name="Hbar" format="1">
  <advance width="734"/>
  <unicode hex="0126"/>
  <outline>
    <contour>
      <point x="111" y="388" type="curve" smooth="yes"/>
      <point x="631" y="398" type="line" smooth="yes"/>
      <point x="667" y="399"/>
      <point x="667" y="456"/>
      <point x="636" y="455" type="curve" smooth="yes"/>
      <point x="117" y="434" type="line" smooth="yes"/>
      <point x="78" y="432"/>
      <point x="80" y="388"/>
    </contour>
    <component base="H"/>
  </outline>
</glyph>
<glyph name="oe" format="1">
  <advance width="466"/>
  <unicode hex="0153"/>
  <outline>
    <contour>
      <point x="503" y="128" type="curve" smooth="yes"/>
      <point x="423" y="51"/>
      <point x="303" y="34"/>
      <point x="280" y="103" type="curve"/>
      <point x="398" y="128"/>
      <point x="461" y="169"/>
      <point x="461" y="245" type="curve" smooth="yes"/>
      <point x="461" y="298"/>
      <point x="419" y="330"/>
      <point x="367" y="330" type="curve" smooth="yes"/>
      <point x="318" y="330"/>
      <point x="276" y="302"/>
      <point x="247" y="263" type="curve"/>
      <point x="231" y="301"/>
      <point x="203" y="328"/>
      <point x="159" y="328" type="curve" smooth="yes"/>
      <point x="98" y="328"/>
      <point x="21" y="267"/>
      <point x="15" y="149" type="curve" smooth="yes"/>
      <point x="9" y="57"/>
      <point x="50" y="0"/>
      <point x="129" y="0" type="curve" smooth="yes"/>
      <point x="169" y="0"/>
      <point x="201" y="24"/>
      <point x="221" y="52" type="curve"/>
      <point x="246" y="13"/>
      <point x="291" y="-4"/>
      <point x="335" y="-6" type="curve" smooth="yes"/>
      <point x="420" y="-8"/>
      <point x="501" y="45"/>
      <point x="533" y="88" type="curve" smooth="yes"/>
      <point x="555" y="118"/>
      <point x="519" y="143"/>
    </contour>
    <contour>
      <point x="161" y="265" type="curve" smooth="yes"/>
      <point x="194" y="265"/>
      <point x="201" y="221"/>
      <point x="201" y="188" type="curve" smooth="yes"/>
      <point x="201" y="124"/>
      <point x="182" y="65"/>
      <point x="142" y="61" type="curve" smooth="yes"/>
      <point x="104" y="58"/>
      <point x="88" y="98"/>
      <point x="90" y="135" type="curve" smooth="yes"/>
      <point x="94" y="208"/>
      <point x="115" y="265"/>
    </contour>
    <contour>
      <point x="275" y="147" type="curve"/>
      <point x="275" y="204"/>
      <point x="322" y="265"/>
      <point x="371" y="265" type="curve" smooth="yes"/>
      <point x="388" y="265"/>
      <point x="402" y="257"/>
      <point x="400" y="233" type="curve" smooth="yes"/>
      <point x="396" y="195"/>
      <point x="316" y="161"/>
    </contour>
  </outline>
</glyph>
<glyph name="caron" format="1">
  <advance width="295"/>
  <unicode hex="02C7"/>
  <outline>
    <contour>
      <point x="145" y="453" type="curve" smooth="yes"/>
      <point x="193" y="453"/>
      <point x="204" y="493"/>
      <point x="221" y="526" type="curve" smooth="yes"/>
      <point x="276" y="639" type="line" smooth="yes"/>
      <point x="286" y="659"/>
      <point x="273" y="683"/>
      <point x="256" y="683" type="curve" smooth="yes"/>
      <point x="221" y="683"/>
      <point x="211" y="666"/>
      <point x="201" y="639" type="curve" smooth="yes"/>
      <point x="183" y="596"/>
      <point x="167" y="554"/>
      <point x="150" y="509" type="curve"/>
      <point x="141" y="548"/>
      <point x="139" y="684"/>
      <point x="86" y="684" type="curve" smooth="yes"/>
      <point x="58" y="684"/>
      <point x="41" y="655"/>
      <point x="49" y="634" type="curve"/>
      <point x="60" y="599"/>
      <point x="69" y="572"/>
      <point x="79" y="539" type="curve" smooth="yes"/>
      <point x="90" y="500"/>
      <point x="98" y="453"/>
    </contour>
  </outline>
</glyph>
<glyph name="quoteleft" format="1">
  <advance width="240"/>
  <unicode hex="2018"/>
  <outline>
    <contour>
      <point x="99" y="405" type="curve" smooth="yes"/>
      <point x="121" y="405"/>
      <point x="139" y="420"/>
      <point x="142" y="448" type="curve" smooth="yes"/>
      <point x="160" y="602"/>
      <point x="160" y="604"/>
      <point x="160" y="605" type="curve" smooth="yes"/>
      <point x="160" y="622"/>
      <point x="151" y="634"/>
      <point x="140" y="634" type="curve" smooth="yes"/>
      <point x="122" y="634"/>
      <point x="109" y="618"/>
      <point x="104" y="602" type="curve"/>
      <point x="88" y="557"/>
      <point x="58" y="495"/>
      <point x="58" y="442" type="curve" smooth="yes"/>
      <point x="58" y="417"/>
      <point x="76" y="405"/>
    </contour>
  </outline>
</glyph>
<glyph name="daggerdbl" format="1">
  <advance width="394"/>
  <unicode hex="2021"/>
  <outline>
    <contour>
      <point x="177" y="-92" type="curve" smooth="yes"/>
      <point x="225" y="-92"/>
      <point x="227" y="-55"/>
      <point x="272" y="125" type="curve"/>
      <point x="362" y="125" type="line" smooth="yes"/>
      <point x="384" y="125"/>
      <point x="397" y="130"/>
      <point x="397" y="153" type="curve" smooth="yes"/>
      <point x="397" y="170"/>
      <point x="386" y="180"/>
      <point x="368" y="180" type="curve" smooth="yes"/>
      <point x="284" y="180" type="line"/>
      <point x="306" y="277" type="line"/>
      <point x="395" y="277" type="line" smooth="yes"/>
      <point x="417" y="277"/>
      <point x="430" y="283"/>
      <point x="430" y="306" type="curve" smooth="yes"/>
      <point x="430" y="323"/>
      <point x="418" y="333"/>
      <point x="401" y="333" type="curve" smooth="yes"/>
      <point x="317" y="333" type="line"/>
      <point x="338" y="420"/>
      <point x="349" y="452"/>
      <point x="349" y="489" type="curve" smooth="yes"/>
      <point x="349" y="505"/>
      <point x="344" y="517"/>
      <point x="328" y="517" type="curve" smooth="yes"/>
      <point x="277" y="517"/>
      <point x="280" y="481"/>
      <point x="241" y="333" type="curve"/>
      <point x="160" y="333" type="line" smooth="yes"/>
      <point x="140" y="333"/>
      <point x="124" y="323"/>
      <point x="124" y="303" type="curve" smooth="yes"/>
      <point x="124" y="283"/>
      <point x="136" y="277"/>
      <point x="157" y="277" type="curve" smooth="yes"/>
      <point x="228" y="277" type="line"/>
      <point x="205" y="180" type="line"/>
      <point x="127" y="180" type="line" smooth="yes"/>
      <point x="107" y="180"/>
      <point x="91" y="170"/>
      <point x="91" y="150" type="curve" smooth="yes"/>
      <point x="91" y="130"/>
      <point x="103" y="125"/>
      <point x="124" y="125" type="curve" smooth="yes"/>
      <point x="191" y="125" type="line"/>
      <point x="162" y="0"/>
      <point x="153" y="-24"/>
      <point x="153" y="-53" type="curve" smooth="yes"/>
      <point x="153" y="-72"/>
      <point x="158" y="-92"/>
    </contour>
  </outline>
</glyph>
<glyph name="perthousand" format="1">
  <advance width="1096"/>
  <unicode hex="2030"/>
  <outline>
    <contour>
      <point x="176" y="246" type="curve" smooth="yes"/>
      <point x="270" y="243"/>
      <point x="336" y="307"/>
      <point x="342" y="438" type="curve" smooth="yes"/>
      <point x="346" y="522"/>
      <point x="301" y="601"/>
      <point x="217" y="603" type="curve" smooth="yes"/>
      <point x="108" y="606"/>
      <point x="47" y="506"/>
      <point x="47" y="395" type="curve" smooth="yes"/>
      <point x="47" y="311"/>
      <point x="90" y="248"/>
    </contour>
    <contour>
      <point x="285" y="-4" type="curve" smooth="yes"/>
      <point x="361" y="146"/>
      <point x="512" y="448"/>
      <point x="561" y="549" type="curve" smooth="yes"/>
      <point x="575" y="581"/>
      <point x="525" y="624"/>
      <point x="501" y="576" type="curve" smooth="yes"/>
      <point x="451" y="477"/>
      <point x="300" y="172"/>
      <point x="228" y="31" type="curve" smooth="yes"/>
      <point x="194" y="-35"/>
      <point x="261" y="-52"/>
    </contour>
    <contour>
      <point x="563" y="-15" type="curve" smooth="yes"/>
      <point x="657" y="-25"/>
      <point x="726" y="50"/>
      <point x="733" y="173" type="curve" smooth="yes"/>
      <point x="738" y="252"/>
      <point x="697" y="332"/>
      <point x="618" y="341" type="curve" smooth="yes"/>
      <point x="510" y="353"/>
      <point x="445" y="256"/>
      <point x="441" y="147" type="curve" smooth="yes"/>
      <point x="438" y="63"/>
      <point x="484" y="-7"/>
    </contour>
    <contour>
      <point x="898" y="-18" type="curve" smooth="yes"/>
      <point x="994" y="-24"/>
      <point x="1061" y="52"/>
      <point x="1066" y="176" type="curve" smooth="yes"/>
      <point x="1069" y="255"/>
      <point x="1026" y="334"/>
      <point x="947" y="340" type="curve" smooth="yes"/>
      <point x="838" y="348"/>
      <point x="776" y="249"/>
      <point x="774" y="141" type="curve" smooth="yes"/>
      <point x="772" y="57"/>
      <point x="819" y="-12"/>
    </contour>
    <contour>
      <point x="179" y="307" type="curve" smooth="yes"/>
      <point x="91" y="309"/>
      <point x="103" y="541"/>
      <point x="213" y="538" type="curve" smooth="yes"/>
      <point x="299" y="535"/>
      <point x="296" y="305"/>
    </contour>
    <contour>
      <point x="571" y="45" type="curve" smooth="yes"/>
      <point x="478" y="56"/>
      <point x="500" y="289"/>
      <point x="609" y="278" type="curve"/>
      <point x="695" y="270"/>
      <point x="675" y="34"/>
    </contour>
    <contour>
      <point x="905" y="43" type="curve" smooth="yes"/>
      <point x="813" y="50"/>
      <point x="831" y="284"/>
      <point x="940" y="277" type="curve" smooth="yes"/>
      <point x="1026" y="272"/>
      <point x="1011" y="35"/>
    </contour>
  </outline>
</glyph>
